<svg xmlns="http://www.w3.org/2000/svg" xmlns:xlink="http://www.w3.org/1999/xlink" width="500" zoomAndPan="magnify" viewBox="0 0 375 374.999991" height="500" preserveAspectRatio="xMidYMid meet" version="1.0"><defs><clipPath id="2f777caf3f"><path d="M 92.808594 117.191406 L 282 117.191406 L 282 257.441406 L 92.808594 257.441406 Z M 92.808594 117.191406 " clip-rule="nonzero"/></clipPath><clipPath id="9f8414a01c"><path d="M 92.808594 117.191406 L 282 117.191406 L 282 254 L 92.808594 254 Z M 92.808594 117.191406 " clip-rule="nonzero"/></clipPath><clipPath id="035f417bdc"><path d="M 101 176 L 256 176 L 256 257.441406 L 101 257.441406 Z M 101 176 " clip-rule="nonzero"/></clipPath><clipPath id="690f4e913e"><path d="M 199.507812 142.988281 L 243.757812 142.988281 L 243.757812 187.238281 L 199.507812 187.238281 Z M 199.507812 142.988281 " clip-rule="nonzero"/></clipPath><clipPath id="6f67236293"><path d="M 67.046875 64.390625 L 296.101562 64.390625 L 296.101562 293.445312 L 67.046875 293.445312 Z M 67.046875 64.390625 " clip-rule="nonzero"/></clipPath><clipPath id="d94dd42919"><path d="M 181.664062 293.628906 C 151.0625 293.628906 122.246094 281.714844 100.625 260.046875 C 78.957031 238.425781 67.046875 209.609375 67.046875 179.007812 C 67.046875 148.40625 78.957031 119.589844 100.625 97.96875 C 122.246094 76.300781 151.0625 64.390625 181.664062 64.390625 C 212.265625 64.390625 241.082031 76.300781 262.703125 97.96875 C 284.375 119.636719 296.285156 148.40625 296.285156 179.007812 C 296.285156 209.609375 284.375 238.425781 262.703125 260.046875 C 241.082031 281.714844 212.265625 293.628906 181.664062 293.628906 Z M 181.664062 71.261719 C 152.894531 71.261719 125.820312 82.484375 105.480469 102.824219 C 85.140625 123.164062 73.917969 150.238281 73.917969 179.007812 C 73.917969 207.777344 85.140625 234.851562 105.480469 255.191406 C 125.820312 275.53125 152.894531 286.753906 181.664062 286.753906 C 210.433594 286.753906 237.507812 275.53125 257.847656 255.191406 C 278.1875 234.851562 289.414062 207.777344 289.414062 179.007812 C 289.414062 150.238281 278.1875 123.164062 257.847656 102.824219 C 237.507812 82.484375 210.433594 71.261719 181.664062 71.261719 Z M 181.664062 71.261719 " clip-rule="nonzero"/></clipPath><linearGradient x1="-0.0000109003" gradientTransform="matrix(0.458111, 0, 0, 0.458111, 67.04539, 64.388728)" y1="0" x2="499.99999" gradientUnits="userSpaceOnUse" y2="0" id="fd0399ae63"><stop stop-opacity="1" stop-color="rgb(0%, 59.199524%, 69.799805%)" offset="0"/><stop stop-opacity="1" stop-color="rgb(0.192261%, 59.300232%, 69.659424%)" offset="0.0078125"/><stop stop-opacity="1" stop-color="rgb(0.576782%, 59.501648%, 69.380188%)" offset="0.015625"/><stop stop-opacity="1" stop-color="rgb(0.96283%, 59.70459%, 69.102478%)" offset="0.0234375"/><stop stop-opacity="1" stop-color="rgb(1.348877%, 59.906006%, 68.823242%)" offset="0.03125"/><stop stop-opacity="1" stop-color="rgb(1.733398%, 60.108948%, 68.544006%)" offset="0.0390625"/><stop stop-opacity="1" stop-color="rgb(2.119446%, 60.310364%, 68.266296%)" offset="0.046875"/><stop stop-opacity="1" stop-color="rgb(2.505493%, 60.513306%, 67.987061%)" offset="0.0546875"/><stop stop-opacity="1" stop-color="rgb(2.891541%, 60.714722%, 67.707825%)" offset="0.0625"/><stop stop-opacity="1" stop-color="rgb(3.276062%, 60.917664%, 67.430115%)" offset="0.0703125"/><stop stop-opacity="1" stop-color="rgb(3.662109%, 61.11908%, 67.150879%)" offset="0.078125"/><stop stop-opacity="1" stop-color="rgb(4.048157%, 61.322021%, 66.873169%)" offset="0.0859375"/><stop stop-opacity="1" stop-color="rgb(4.434204%, 61.523438%, 66.593933%)" offset="0.09375"/><stop stop-opacity="1" stop-color="rgb(4.818726%, 61.726379%, 66.314697%)" offset="0.101563"/><stop stop-opacity="1" stop-color="rgb(5.204773%, 61.927795%, 66.036987%)" offset="0.109375"/><stop stop-opacity="1" stop-color="rgb(5.59082%, 62.130737%, 65.757751%)" offset="0.117188"/><stop stop-opacity="1" stop-color="rgb(5.975342%, 62.332153%, 65.478516%)" offset="0.125"/><stop stop-opacity="1" stop-color="rgb(6.361389%, 62.535095%, 65.200806%)" offset="0.132812"/><stop stop-opacity="1" stop-color="rgb(6.747437%, 62.736511%, 64.92157%)" offset="0.140625"/><stop stop-opacity="1" stop-color="rgb(7.133484%, 62.939453%, 64.642334%)" offset="0.148438"/><stop stop-opacity="1" stop-color="rgb(7.518005%, 63.140869%, 64.364624%)" offset="0.15625"/><stop stop-opacity="1" stop-color="rgb(7.904053%, 63.343811%, 64.085388%)" offset="0.164063"/><stop stop-opacity="1" stop-color="rgb(8.2901%, 63.545227%, 63.807678%)" offset="0.171875"/><stop stop-opacity="1" stop-color="rgb(8.676147%, 63.748169%, 63.528442%)" offset="0.179688"/><stop stop-opacity="1" stop-color="rgb(9.060669%, 63.949585%, 63.249207%)" offset="0.1875"/><stop stop-opacity="1" stop-color="rgb(9.446716%, 64.152527%, 62.971497%)" offset="0.195312"/><stop stop-opacity="1" stop-color="rgb(9.832764%, 64.353943%, 62.692261%)" offset="0.203125"/><stop stop-opacity="1" stop-color="rgb(10.217285%, 64.556885%, 62.413025%)" offset="0.210938"/><stop stop-opacity="1" stop-color="rgb(10.603333%, 64.758301%, 62.135315%)" offset="0.21875"/><stop stop-opacity="1" stop-color="rgb(10.98938%, 64.961243%, 61.856079%)" offset="0.226562"/><stop stop-opacity="1" stop-color="rgb(11.375427%, 65.162659%, 61.576843%)" offset="0.234375"/><stop stop-opacity="1" stop-color="rgb(11.759949%, 65.365601%, 61.299133%)" offset="0.242187"/><stop stop-opacity="1" stop-color="rgb(12.145996%, 65.567017%, 61.019897%)" offset="0.25"/><stop stop-opacity="1" stop-color="rgb(12.532043%, 65.769958%, 60.740662%)" offset="0.257812"/><stop stop-opacity="1" stop-color="rgb(12.918091%, 65.971375%, 60.462952%)" offset="0.265625"/><stop stop-opacity="1" stop-color="rgb(13.302612%, 66.174316%, 60.183716%)" offset="0.273438"/><stop stop-opacity="1" stop-color="rgb(13.68866%, 66.375732%, 59.906006%)" offset="0.28125"/><stop stop-opacity="1" stop-color="rgb(14.074707%, 66.578674%, 59.62677%)" offset="0.289062"/><stop stop-opacity="1" stop-color="rgb(14.460754%, 66.78009%, 59.347534%)" offset="0.296875"/><stop stop-opacity="1" stop-color="rgb(14.845276%, 66.983032%, 59.069824%)" offset="0.304688"/><stop stop-opacity="1" stop-color="rgb(15.231323%, 67.184448%, 58.790588%)" offset="0.3125"/><stop stop-opacity="1" stop-color="rgb(15.617371%, 67.38739%, 58.511353%)" offset="0.320313"/><stop stop-opacity="1" stop-color="rgb(16.001892%, 67.588806%, 58.233643%)" offset="0.328125"/><stop stop-opacity="1" stop-color="rgb(16.387939%, 67.791748%, 57.954407%)" offset="0.335938"/><stop stop-opacity="1" stop-color="rgb(16.773987%, 67.99469%, 57.675171%)" offset="0.34375"/><stop stop-opacity="1" stop-color="rgb(17.160034%, 68.196106%, 57.397461%)" offset="0.351562"/><stop stop-opacity="1" stop-color="rgb(17.544556%, 68.399048%, 57.118225%)" offset="0.359375"/><stop stop-opacity="1" stop-color="rgb(17.930603%, 68.600464%, 56.838989%)" offset="0.367188"/><stop stop-opacity="1" stop-color="rgb(18.31665%, 68.803406%, 56.561279%)" offset="0.375"/><stop stop-opacity="1" stop-color="rgb(18.702698%, 69.004822%, 56.282043%)" offset="0.382812"/><stop stop-opacity="1" stop-color="rgb(19.087219%, 69.207764%, 56.004333%)" offset="0.390625"/><stop stop-opacity="1" stop-color="rgb(19.473267%, 69.40918%, 55.725098%)" offset="0.398438"/><stop stop-opacity="1" stop-color="rgb(19.859314%, 69.612122%, 55.445862%)" offset="0.40625"/><stop stop-opacity="1" stop-color="rgb(20.243835%, 69.813538%, 55.168152%)" offset="0.414062"/><stop stop-opacity="1" stop-color="rgb(20.629883%, 70.016479%, 54.888916%)" offset="0.421875"/><stop stop-opacity="1" stop-color="rgb(21.01593%, 70.217896%, 54.60968%)" offset="0.429688"/><stop stop-opacity="1" stop-color="rgb(21.401978%, 70.420837%, 54.33197%)" offset="0.4375"/><stop stop-opacity="1" stop-color="rgb(21.786499%, 70.622253%, 54.052734%)" offset="0.445312"/><stop stop-opacity="1" stop-color="rgb(22.172546%, 70.825195%, 53.773499%)" offset="0.453125"/><stop stop-opacity="1" stop-color="rgb(22.558594%, 71.026611%, 53.495789%)" offset="0.460937"/><stop stop-opacity="1" stop-color="rgb(22.944641%, 71.229553%, 53.216553%)" offset="0.46875"/><stop stop-opacity="1" stop-color="rgb(23.329163%, 71.430969%, 52.938843%)" offset="0.476562"/><stop stop-opacity="1" stop-color="rgb(23.71521%, 71.633911%, 52.659607%)" offset="0.484375"/><stop stop-opacity="1" stop-color="rgb(24.101257%, 71.835327%, 52.380371%)" offset="0.492187"/><stop stop-opacity="1" stop-color="rgb(24.487305%, 72.038269%, 52.102661%)" offset="0.5"/><stop stop-opacity="1" stop-color="rgb(24.871826%, 72.239685%, 51.823425%)" offset="0.507812"/><stop stop-opacity="1" stop-color="rgb(25.257874%, 72.442627%, 51.544189%)" offset="0.515625"/><stop stop-opacity="1" stop-color="rgb(25.643921%, 72.644043%, 51.266479%)" offset="0.523438"/><stop stop-opacity="1" stop-color="rgb(26.028442%, 72.846985%, 50.987244%)" offset="0.53125"/><stop stop-opacity="1" stop-color="rgb(26.41449%, 73.048401%, 50.708008%)" offset="0.539062"/><stop stop-opacity="1" stop-color="rgb(26.800537%, 73.251343%, 50.430298%)" offset="0.546875"/><stop stop-opacity="1" stop-color="rgb(27.186584%, 73.452759%, 50.151062%)" offset="0.554688"/><stop stop-opacity="1" stop-color="rgb(27.571106%, 73.655701%, 49.871826%)" offset="0.5625"/><stop stop-opacity="1" stop-color="rgb(27.957153%, 73.857117%, 49.594116%)" offset="0.570312"/><stop stop-opacity="1" stop-color="rgb(28.343201%, 74.060059%, 49.31488%)" offset="0.578125"/><stop stop-opacity="1" stop-color="rgb(28.729248%, 74.261475%, 49.03717%)" offset="0.585938"/><stop stop-opacity="1" stop-color="rgb(29.11377%, 74.464417%, 48.757935%)" offset="0.59375"/><stop stop-opacity="1" stop-color="rgb(29.499817%, 74.665833%, 48.478699%)" offset="0.601562"/><stop stop-opacity="1" stop-color="rgb(29.885864%, 74.868774%, 48.200989%)" offset="0.609375"/><stop stop-opacity="1" stop-color="rgb(30.270386%, 75.07019%, 47.921753%)" offset="0.617188"/><stop stop-opacity="1" stop-color="rgb(30.656433%, 75.273132%, 47.642517%)" offset="0.625"/><stop stop-opacity="1" stop-color="rgb(31.04248%, 75.474548%, 47.364807%)" offset="0.632812"/><stop stop-opacity="1" stop-color="rgb(31.428528%, 75.67749%, 47.085571%)" offset="0.640625"/><stop stop-opacity="1" stop-color="rgb(31.813049%, 75.878906%, 46.806335%)" offset="0.648438"/><stop stop-opacity="1" stop-color="rgb(32.199097%, 76.081848%, 46.528625%)" offset="0.65625"/><stop stop-opacity="1" stop-color="rgb(32.585144%, 76.283264%, 46.24939%)" offset="0.664062"/><stop stop-opacity="1" stop-color="rgb(32.971191%, 76.486206%, 45.970154%)" offset="0.671875"/><stop stop-opacity="1" stop-color="rgb(33.355713%, 76.687622%, 45.692444%)" offset="0.679688"/><stop stop-opacity="1" stop-color="rgb(33.74176%, 76.890564%, 45.413208%)" offset="0.6875"/><stop stop-opacity="1" stop-color="rgb(34.127808%, 77.09198%, 45.135498%)" offset="0.695312"/><stop stop-opacity="1" stop-color="rgb(34.513855%, 77.294922%, 44.856262%)" offset="0.703125"/><stop stop-opacity="1" stop-color="rgb(34.898376%, 77.496338%, 44.577026%)" offset="0.710937"/><stop stop-opacity="1" stop-color="rgb(35.284424%, 77.69928%, 44.299316%)" offset="0.71875"/><stop stop-opacity="1" stop-color="rgb(35.670471%, 77.900696%, 44.020081%)" offset="0.726562"/><stop stop-opacity="1" stop-color="rgb(36.054993%, 78.103638%, 43.740845%)" offset="0.734375"/><stop stop-opacity="1" stop-color="rgb(36.44104%, 78.305054%, 43.463135%)" offset="0.742187"/><stop stop-opacity="1" stop-color="rgb(36.827087%, 78.507996%, 43.183899%)" offset="0.75"/><stop stop-opacity="1" stop-color="rgb(37.213135%, 78.709412%, 42.904663%)" offset="0.757813"/><stop stop-opacity="1" stop-color="rgb(37.597656%, 78.912354%, 42.626953%)" offset="0.765625"/><stop stop-opacity="1" stop-color="rgb(37.983704%, 79.11377%, 42.347717%)" offset="0.773438"/><stop stop-opacity="1" stop-color="rgb(38.369751%, 79.316711%, 42.068481%)" offset="0.78125"/><stop stop-opacity="1" stop-color="rgb(38.755798%, 79.518127%, 41.790771%)" offset="0.789063"/><stop stop-opacity="1" stop-color="rgb(39.14032%, 79.721069%, 41.511536%)" offset="0.796875"/><stop stop-opacity="1" stop-color="rgb(39.526367%, 79.922485%, 41.233826%)" offset="0.804688"/><stop stop-opacity="1" stop-color="rgb(39.912415%, 80.125427%, 40.95459%)" offset="0.8125"/><stop stop-opacity="1" stop-color="rgb(40.296936%, 80.326843%, 40.675354%)" offset="0.820313"/><stop stop-opacity="1" stop-color="rgb(40.682983%, 80.529785%, 40.397644%)" offset="0.828125"/><stop stop-opacity="1" stop-color="rgb(41.069031%, 80.731201%, 40.118408%)" offset="0.835938"/><stop stop-opacity="1" stop-color="rgb(41.455078%, 80.934143%, 39.839172%)" offset="0.84375"/><stop stop-opacity="1" stop-color="rgb(41.8396%, 81.135559%, 39.561462%)" offset="0.851563"/><stop stop-opacity="1" stop-color="rgb(42.225647%, 81.338501%, 39.282227%)" offset="0.859375"/><stop stop-opacity="1" stop-color="rgb(42.611694%, 81.539917%, 39.002991%)" offset="0.867188"/><stop stop-opacity="1" stop-color="rgb(42.997742%, 81.742859%, 38.725281%)" offset="0.875"/><stop stop-opacity="1" stop-color="rgb(43.382263%, 81.944275%, 38.446045%)" offset="0.882813"/><stop stop-opacity="1" stop-color="rgb(43.768311%, 82.147217%, 38.168335%)" offset="0.890625"/><stop stop-opacity="1" stop-color="rgb(44.154358%, 82.348633%, 37.889099%)" offset="0.898438"/><stop stop-opacity="1" stop-color="rgb(44.540405%, 82.551575%, 37.609863%)" offset="0.90625"/><stop stop-opacity="1" stop-color="rgb(44.924927%, 82.752991%, 37.332153%)" offset="0.914062"/><stop stop-opacity="1" stop-color="rgb(45.310974%, 82.955933%, 37.052917%)" offset="0.921875"/><stop stop-opacity="1" stop-color="rgb(45.697021%, 83.157349%, 36.773682%)" offset="0.929688"/><stop stop-opacity="1" stop-color="rgb(46.081543%, 83.360291%, 36.495972%)" offset="0.9375"/><stop stop-opacity="1" stop-color="rgb(46.46759%, 83.561707%, 36.216736%)" offset="0.945312"/><stop stop-opacity="1" stop-color="rgb(46.853638%, 83.764648%, 35.9375%)" offset="0.953125"/><stop stop-opacity="1" stop-color="rgb(47.239685%, 83.966064%, 35.65979%)" offset="0.960938"/><stop stop-opacity="1" stop-color="rgb(47.624207%, 84.169006%, 35.380554%)" offset="0.96875"/><stop stop-opacity="1" stop-color="rgb(48.010254%, 84.370422%, 35.101318%)" offset="0.976562"/><stop stop-opacity="1" stop-color="rgb(48.396301%, 84.573364%, 34.823608%)" offset="0.984375"/><stop stop-opacity="1" stop-color="rgb(48.782349%, 84.77478%, 34.544373%)" offset="0.992188"/><stop stop-opacity="1" stop-color="rgb(49.16687%, 84.977722%, 34.266663%)" offset="1"/></linearGradient></defs><g clip-path="url(#2f777caf3f)"><path fill="#24960c" d="M 164.09375 160 L 163.464844 147.652344 C 163.328125 144.945312 161.082031 142.824219 158.359375 142.824219 L 149.273438 142.824219 C 147.359375 142.824219 145.808594 144.367188 145.808594 146.273438 L 145.808594 166.03125 C 145.808594 168.539062 148.402344 170.207031 150.695312 169.179688 L 162.167969 164.039062 C 163.714844 163.34375 164.53125 161.632812 164.09375 160 Z M 140.90625 146.125 C 140.90625 144.300781 139.417969 142.824219 137.585938 142.824219 L 122.027344 142.824219 C 120.796875 142.824219 119.667969 143.496094 119.09375 144.578125 L 109.683594 162.492188 C 109.445312 162.941406 109.3125 163.4375 109.296875 163.945312 L 109.179688 167.972656 C 109.125 169.832031 110.625 171.375 112.496094 171.375 L 137.585938 171.375 C 139.417969 171.375 140.90625 169.894531 140.90625 168.070312 Z M 92.953125 175.96875 L 114.097656 139.472656 C 115.921875 136.328125 119.273438 134.378906 122.917969 134.335938 L 161.246094 133.933594 C 166.074219 133.886719 170.214844 137.332031 171.027344 142.066406 L 174.09375 159.96875 L 174.09375 202.863281 L 177.734375 202.863281 L 177.734375 159.8125 C 177.734375 159.710938 177.726562 159.609375 177.707031 159.511719 L 172.832031 128.414062 C 172.644531 127.203125 171.617188 126.296875 170.382812 126.257812 L 121.40625 124.648438 C 120.636719 124.621094 119.921875 124.253906 119.457031 123.648438 L 117.699219 121.367188 C 116.917969 120.351562 116.972656 118.878906 117.914062 118.011719 C 118.363281 117.601562 118.957031 117.347656 119.640625 117.347656 L 173.496094 117.347656 C 175.1875 117.347656 176.789062 118.105469 177.847656 119.421875 L 192.242188 137.277344 C 192.847656 138.023438 193.757812 138.460938 194.722656 138.46875 L 264.765625 138.871094 C 266.738281 138.878906 268.574219 139.898438 269.621094 141.566406 L 281.390625 160.292969 C 281.460938 160.402344 281.53125 160.523438 281.578125 160.644531 C 282.164062 162.0625 281.871094 163.699219 280.8125 164.828125 L 245.058594 203.148438 C 245.085938 203.167969 245.117188 203.1875 245.148438 203.207031 L 245.152344 203.207031 C 245.191406 203.167969 245.238281 203.132812 245.285156 203.101562 C 245.285156 203.097656 245.285156 203.097656 245.289062 203.101562 C 245.371094 203.039062 245.460938 202.992188 245.550781 202.945312 C 245.566406 202.9375 245.582031 202.929688 245.597656 202.925781 C 245.644531 202.90625 245.691406 202.886719 245.742188 202.867188 C 246.164062 202.71875 246.636719 202.714844 247.089844 202.851562 C 247.179688 202.875 247.265625 202.910156 247.351562 202.945312 C 247.4375 202.984375 247.523438 203.027344 247.605469 203.074219 C 247.6875 203.117188 247.769531 203.171875 247.851562 203.230469 C 247.929688 203.289062 248.003906 203.351562 248.078125 203.421875 C 248.1875 203.523438 248.296875 203.640625 248.390625 203.765625 C 249.253906 204.914062 250.070312 206.109375 250.777344 207.363281 C 251.140625 207.96875 251.210938 208.664062 251.058594 209.246094 C 250.914062 209.832031 250.53125 210.3125 249.976562 210.574219 L 248.300781 211.371094 C 248.351562 211.476562 248.398438 211.582031 248.445312 211.6875 C 248.492188 211.785156 248.539062 211.882812 248.578125 211.976562 C 248.664062 212.164062 248.746094 212.355469 248.828125 212.539062 C 248.882812 212.671875 248.941406 212.804688 248.992188 212.9375 C 249.003906 212.964844 249.011719 212.988281 249.019531 213.007812 L 249.148438 213.324219 C 249.277344 213.652344 249.398438 213.984375 249.511719 214.316406 C 249.566406 214.460938 249.613281 214.605469 249.664062 214.753906 C 249.78125 215.105469 249.890625 215.460938 249.992188 215.816406 C 250.023438 215.914062 250.050781 216.015625 250.078125 216.117188 C 250.085938 216.128906 250.085938 216.140625 250.085938 216.148438 C 250.121094 216.265625 250.152344 216.386719 250.183594 216.507812 C 250.207031 216.582031 250.226562 216.660156 250.246094 216.738281 C 250.261719 216.808594 250.28125 216.882812 250.300781 216.953125 L 252.101562 216.515625 C 253.269531 216.210938 254.542969 217.089844 254.765625 218.5 C 254.894531 219.207031 254.964844 219.925781 255.058594 220.636719 C 255.105469 221.355469 255.191406 222.070312 255.199219 222.789062 C 255.261719 224.214844 254.1875 225.328125 252.984375 225.257812 L 251.128906 225.1875 C 251.125 225.265625 251.125 225.351562 251.117188 225.429688 C 251.070312 226.460938 250.96875 227.480469 250.8125 228.484375 C 250.804688 228.546875 250.792969 228.609375 250.78125 228.671875 C 250.691406 229.257812 250.582031 229.839844 250.449219 230.410156 C 250.417969 230.558594 250.386719 230.710938 250.347656 230.855469 C 250.34375 230.867188 250.34375 230.878906 250.339844 230.890625 C 250.328125 230.949219 250.3125 231.003906 250.300781 231.0625 L 252.101562 231.503906 C 253.292969 231.773438 253.984375 233.132812 253.539062 234.492188 C 253.105469 235.867188 252.53125 237.191406 251.925781 238.5 C 251.609375 239.128906 251.09375 239.589844 250.523438 239.796875 C 249.941406 240 249.328125 239.960938 248.800781 239.660156 L 247.195312 238.734375 L 247.195312 238.738281 C 247.105469 238.898438 247.007812 239.058594 246.910156 239.21875 C 246.699219 239.566406 246.480469 239.90625 246.253906 240.246094 C 246.167969 240.371094 246.085938 240.5 246 240.621094 C 245.792969 240.929688 245.574219 241.230469 245.351562 241.53125 C 245.277344 241.628906 245.203125 241.726562 245.128906 241.828125 C 244.9375 242.074219 244.746094 242.316406 244.546875 242.558594 C 244.453125 242.683594 244.351562 242.800781 244.246094 242.921875 C 244.222656 242.953125 244.199219 242.984375 244.167969 243.015625 C 244.03125 243.175781 243.898438 243.332031 243.757812 243.488281 C 243.742188 243.507812 243.726562 243.527344 243.710938 243.542969 L 245.101562 244.769531 C 246.023438 245.5625 246.003906 247.085938 244.976562 248.078125 C 243.953125 249.09375 242.828125 250 241.679688 250.878906 C 241.570312 250.957031 241.453125 251.027344 241.339844 251.089844 C 241.285156 251.117188 241.230469 251.140625 241.179688 251.164062 C 241.152344 251.179688 241.125 251.191406 241.09375 251.203125 C 241.039062 251.226562 240.980469 251.25 240.925781 251.269531 C 240.621094 251.371094 240.308594 251.417969 240.011719 251.394531 C 239.953125 251.394531 239.894531 251.390625 239.835938 251.378906 C 239.226562 251.296875 238.699219 250.976562 238.375 250.46875 L 237.382812 248.90625 L 237.378906 248.90625 C 237.25 248.996094 237.113281 249.078125 236.976562 249.15625 C 236.84375 249.238281 236.707031 249.320312 236.574219 249.394531 C 236.5 249.445312 236.425781 249.484375 236.355469 249.527344 C 236.285156 249.566406 236.214844 249.605469 236.144531 249.648438 C 236.089844 249.679688 236.035156 249.710938 235.976562 249.742188 C 235.804688 249.835938 235.632812 249.929688 235.457031 250.023438 C 235.347656 250.082031 235.238281 250.136719 235.128906 250.195312 C 235.019531 250.25 234.910156 250.308594 234.796875 250.363281 C 234.613281 250.453125 234.429688 250.542969 234.246094 250.628906 C 234.132812 250.683594 234.019531 250.738281 233.910156 250.789062 C 233.765625 250.851562 233.613281 250.917969 233.464844 250.984375 C 233.460938 250.992188 233.460938 250.992188 233.457031 250.988281 C 233.441406 250.996094 233.429688 251.003906 233.414062 251.007812 C 233.410156 251.011719 233.410156 251.011719 233.410156 251.007812 C 233.261719 251.074219 233.109375 251.136719 232.960938 251.199219 C 232.847656 251.25 232.730469 251.296875 232.613281 251.339844 C 232.488281 251.394531 232.363281 251.441406 232.234375 251.492188 C 232.21875 251.5 232.203125 251.503906 232.183594 251.511719 C 232.140625 251.527344 232.101562 251.542969 232.054688 251.5625 L 232.714844 253.289062 C 233.164062 254.421875 232.433594 255.757812 231.054688 256.164062 L 230.015625 256.457031 L 228.957031 256.703125 C 228.253906 256.878906 227.539062 256.980469 226.828125 257.113281 C 226.125 257.214844 225.449219 257.042969 224.957031 256.703125 C 224.460938 256.34375 224.140625 255.816406 224.09375 255.214844 L 223.949219 253.371094 C 223.859375 253.378906 223.769531 253.386719 223.679688 253.394531 C 223.480469 253.410156 223.28125 253.417969 223.082031 253.429688 C 222.863281 253.441406 222.644531 253.449219 222.421875 253.453125 C 222.355469 253.457031 222.285156 253.457031 222.21875 253.457031 C 222 253.464844 221.777344 253.46875 221.558594 253.46875 C 220.855469 253.46875 220.160156 253.445312 219.46875 253.394531 C 219.367188 253.386719 219.269531 253.378906 219.167969 253.371094 C 219.070312 253.367188 218.96875 253.355469 218.871094 253.347656 C 218.722656 253.335938 218.578125 253.320312 218.433594 253.304688 C 218.28125 253.289062 218.136719 253.273438 217.992188 253.253906 L 217.769531 255.089844 C 217.695312 255.6875 217.359375 256.203125 216.847656 256.539062 C 216.335938 256.886719 215.660156 256.996094 214.964844 256.875 C 213.546875 256.582031 212.140625 256.234375 210.773438 255.757812 C 210.097656 255.542969 209.582031 255.070312 209.308594 254.527344 C 209.03125 253.992188 208.992188 253.386719 209.230469 252.824219 L 209.964844 251.121094 L 209.960938 251.121094 C 209.753906 251.035156 209.550781 250.941406 209.347656 250.851562 C 209.222656 250.796875 209.097656 250.738281 208.972656 250.675781 C 208.824219 250.609375 208.675781 250.535156 208.53125 250.464844 C 208.507812 250.453125 208.480469 250.445312 208.457031 250.425781 C 208.277344 250.34375 208.105469 250.253906 207.929688 250.164062 C 207.824219 250.109375 207.714844 250.050781 207.605469 249.992188 C 207.496094 249.933594 207.382812 249.875 207.277344 249.816406 C 207.058594 249.695312 206.84375 249.570312 206.628906 249.445312 C 206.449219 249.339844 206.273438 249.234375 206.09375 249.128906 C 206.011719 249.078125 205.929688 249.03125 205.847656 248.976562 C 205.683594 248.875 205.527344 248.769531 205.363281 248.667969 C 205.160156 248.53125 204.953125 248.390625 204.746094 248.253906 L 203.6875 249.773438 C 203.015625 250.777344 201.484375 250.953125 200.375 250.050781 C 199.257812 249.140625 198.179688 248.175781 197.191406 247.128906 C 196.699219 246.621094 196.460938 245.96875 196.46875 245.363281 C 196.472656 244.761719 196.722656 244.203125 197.195312 243.816406 L 198.640625 242.644531 C 198.402344 242.355469 198.171875 242.066406 197.949219 241.769531 C 197.871094 241.671875 197.796875 241.574219 197.726562 241.472656 C 197.414062 241.058594 197.117188 240.628906 196.832031 240.199219 C 196.734375 240.058594 196.644531 239.910156 196.550781 239.765625 C 196.421875 239.566406 196.300781 239.367188 196.179688 239.167969 C 196.121094 239.078125 196.066406 238.988281 196.019531 238.894531 C 196.011719 238.886719 196.007812 238.882812 196.007812 238.878906 C 195.90625 238.707031 195.808594 238.53125 195.707031 238.355469 C 195.589844 238.152344 195.476562 237.949219 195.371094 237.742188 C 195.363281 237.730469 195.355469 237.714844 195.347656 237.703125 L 195.347656 237.699219 L 193.703125 238.5625 C 192.640625 239.140625 191.207031 238.585938 190.636719 237.273438 C 190.074219 235.945312 189.570312 234.59375 189.183594 233.207031 C 188.980469 232.527344 189.074219 231.839844 189.367188 231.308594 C 189.65625 230.773438 190.132812 230.398438 190.734375 230.277344 L 192.554688 229.910156 C 192.511719 229.683594 192.46875 229.453125 192.425781 229.222656 C 192.382812 228.992188 192.34375 228.761719 192.3125 228.527344 C 192.304688 228.488281 192.296875 228.445312 192.292969 228.40625 C 192.265625 228.222656 192.238281 228.035156 192.214844 227.851562 C 192.183594 227.625 192.15625 227.398438 192.132812 227.171875 C 192.128906 227.113281 192.121094 227.054688 192.117188 227 C 192.082031 226.6875 192.054688 226.371094 192.035156 226.054688 C 192.007812 225.644531 191.988281 225.238281 191.976562 224.824219 C 191.96875 224.554688 191.964844 224.28125 191.964844 224.007812 L 190.101562 224.007812 C 189.492188 224.007812 188.945312 223.734375 188.558594 223.269531 C 188.164062 222.808594 187.929688 222.15625 187.996094 221.453125 C 188 221.417969 188.003906 221.382812 188.007812 221.351562 L 168.8125 221.351562 C 168.816406 221.382812 168.820312 221.414062 168.820312 221.445312 C 168.832031 221.554688 168.839844 221.664062 168.84375 221.773438 C 168.855469 221.875 168.867188 221.984375 168.871094 222.09375 C 168.878906 222.203125 168.886719 222.316406 168.890625 222.429688 C 168.894531 222.550781 168.898438 222.671875 168.898438 222.789062 C 168.957031 224.214844 167.890625 225.328125 166.683594 225.257812 L 164.828125 225.1875 C 164.816406 225.4375 164.804688 225.691406 164.789062 225.941406 C 164.773438 226.167969 164.757812 226.390625 164.738281 226.613281 C 164.734375 226.660156 164.730469 226.707031 164.722656 226.753906 C 164.707031 226.941406 164.6875 227.136719 164.664062 227.320312 C 164.660156 227.402344 164.648438 227.484375 164.640625 227.566406 C 164.617188 227.742188 164.597656 227.914062 164.570312 228.085938 C 164.566406 228.136719 164.558594 228.183594 164.550781 228.226562 C 164.53125 228.386719 164.503906 228.542969 164.480469 228.695312 C 164.460938 228.824219 164.441406 228.953125 164.414062 229.078125 C 164.398438 229.175781 164.382812 229.28125 164.359375 229.378906 C 164.296875 229.726562 164.226562 230.070312 164.148438 230.410156 C 164.121094 230.558594 164.085938 230.710938 164.050781 230.855469 C 164.046875 230.867188 164.042969 230.878906 164.039062 230.890625 C 164.027344 230.949219 164.015625 231.003906 164 231.0625 L 165.804688 231.503906 C 166.996094 231.773438 167.6875 233.132812 167.242188 234.492188 C 166.804688 235.867188 166.230469 237.191406 165.625 238.5 C 165.304688 239.128906 164.796875 239.589844 164.222656 239.796875 C 163.644531 240 163.027344 239.960938 162.5 239.660156 L 160.898438 238.734375 L 160.898438 238.738281 C 160.597656 239.246094 160.285156 239.75 159.957031 240.246094 C 159.871094 240.371094 159.789062 240.5 159.703125 240.621094 C 159.558594 240.824219 159.417969 241.03125 159.269531 241.230469 C 159.125 241.429688 158.976562 241.628906 158.828125 241.828125 C 158.691406 242 158.558594 242.179688 158.417969 242.351562 C 158.367188 242.417969 158.308594 242.488281 158.25 242.558594 C 158.148438 242.683594 158.046875 242.800781 157.949219 242.921875 C 157.925781 242.953125 157.898438 242.984375 157.867188 243.015625 C 157.734375 243.175781 157.597656 243.332031 157.457031 243.488281 C 157.445312 243.507812 157.429688 243.527344 157.410156 243.542969 L 158.800781 244.769531 C 159.726562 245.5625 159.707031 247.085938 158.675781 248.078125 C 157.652344 249.09375 156.523438 250 155.382812 250.878906 C 155.269531 250.957031 155.15625 251.027344 155.039062 251.089844 C 154.984375 251.117188 154.933594 251.140625 154.878906 251.164062 C 154.855469 251.179688 154.824219 251.191406 154.792969 251.203125 C 154.738281 251.226562 154.679688 251.25 154.625 251.269531 C 154.320312 251.371094 154.007812 251.417969 153.710938 251.394531 C 153.652344 251.394531 153.597656 251.390625 153.535156 251.378906 C 152.925781 251.296875 152.402344 250.976562 152.078125 250.46875 L 151.082031 248.90625 C 150.875 249.042969 150.667969 249.164062 150.457031 249.292969 C 150.449219 249.300781 150.441406 249.300781 150.433594 249.304688 C 150.332031 249.367188 150.230469 249.425781 150.132812 249.480469 C 150.03125 249.539062 149.933594 249.597656 149.832031 249.652344 C 149.78125 249.6875 149.726562 249.710938 149.679688 249.742188 C 149.503906 249.835938 149.332031 249.929688 149.160156 250.023438 C 149.050781 250.082031 148.9375 250.136719 148.828125 250.195312 C 148.71875 250.25 148.609375 250.308594 148.496094 250.363281 C 148.316406 250.453125 148.128906 250.542969 147.945312 250.628906 C 147.832031 250.683594 147.722656 250.738281 147.609375 250.789062 C 147.464844 250.851562 147.316406 250.917969 147.160156 250.984375 C 147.160156 250.992188 147.160156 250.992188 147.15625 250.988281 C 147.144531 250.996094 147.128906 251.003906 147.117188 251.007812 C 147.113281 251.011719 147.113281 251.011719 147.109375 251.007812 C 146.960938 251.074219 146.8125 251.136719 146.660156 251.199219 C 146.546875 251.25 146.433594 251.296875 146.316406 251.339844 C 146.191406 251.394531 146.066406 251.441406 145.933594 251.492188 C 145.917969 251.5 145.902344 251.503906 145.886719 251.511719 C 145.84375 251.527344 145.800781 251.542969 145.757812 251.5625 L 146.414062 253.289062 C 146.867188 254.421875 146.132812 255.757812 144.757812 256.164062 L 143.710938 256.457031 L 142.65625 256.703125 C 141.953125 256.878906 141.234375 256.980469 140.527344 257.113281 C 139.828125 257.214844 139.152344 257.042969 138.660156 256.703125 C 138.160156 256.34375 137.839844 255.816406 137.796875 255.214844 L 137.644531 253.371094 C 137.550781 253.378906 137.453125 253.386719 137.359375 253.394531 C 137.167969 253.410156 136.972656 253.417969 136.78125 253.429688 C 136.5625 253.441406 136.34375 253.449219 136.128906 253.453125 C 136.058594 253.457031 135.992188 253.457031 135.929688 253.457031 C 135.707031 253.464844 135.480469 253.46875 135.261719 253.46875 C 134.554688 253.46875 133.859375 253.445312 133.167969 253.394531 C 133.070312 253.386719 132.96875 253.378906 132.871094 253.371094 C 132.769531 253.367188 132.671875 253.355469 132.574219 253.347656 C 132.425781 253.335938 132.277344 253.320312 132.132812 253.304688 C 131.988281 253.289062 131.839844 253.273438 131.691406 253.253906 L 131.46875 255.089844 C 131.398438 255.6875 131.0625 256.203125 130.546875 256.539062 C 130.039062 256.886719 129.363281 256.996094 128.660156 256.875 C 127.25 256.582031 125.839844 256.234375 124.472656 255.757812 C 123.796875 255.542969 123.28125 255.070312 123.007812 254.527344 C 122.726562 253.992188 122.691406 253.386719 122.933594 252.824219 L 123.660156 251.121094 C 123.652344 251.117188 123.640625 251.113281 123.628906 251.105469 C 123.398438 251.007812 123.171875 250.910156 122.945312 250.804688 C 122.933594 250.800781 122.914062 250.789062 122.898438 250.785156 C 122.683594 250.683594 122.464844 250.582031 122.246094 250.472656 C 122.222656 250.464844 122.199219 250.449219 122.175781 250.4375 C 121.992188 250.351562 121.8125 250.257812 121.632812 250.164062 C 121.523438 250.109375 121.417969 250.054688 121.316406 250 C 121.214844 249.945312 121.109375 249.886719 121.007812 249.832031 C 120.933594 249.792969 120.859375 249.753906 120.789062 249.710938 C 120.640625 249.625 120.488281 249.539062 120.339844 249.453125 C 120.226562 249.390625 120.109375 249.320312 119.996094 249.25 C 119.890625 249.1875 119.792969 249.128906 119.6875 249.0625 C 119.476562 248.933594 119.269531 248.800781 119.0625 248.667969 C 118.855469 248.53125 118.648438 248.390625 118.445312 248.253906 L 117.390625 249.773438 C 116.71875 250.777344 115.183594 250.953125 114.074219 250.050781 C 112.953125 249.140625 111.878906 248.175781 110.894531 247.128906 C 110.394531 246.621094 110.164062 245.96875 110.167969 245.363281 C 110.167969 244.761719 110.421875 244.203125 110.894531 243.816406 L 112.335938 242.644531 C 112.109375 242.367188 111.882812 242.085938 111.664062 241.796875 C 111.589844 241.703125 111.519531 241.601562 111.445312 241.503906 C 111.394531 241.441406 111.351562 241.375 111.304688 241.308594 C 111.21875 241.191406 111.132812 241.074219 111.046875 240.949219 C 110.738281 240.519531 110.445312 240.082031 110.167969 239.636719 C 110.035156 239.425781 109.90625 239.214844 109.777344 239 C 109.652344 238.785156 109.53125 238.570312 109.410156 238.359375 C 109.296875 238.152344 109.1875 237.953125 109.078125 237.75 C 109.0625 237.734375 109.058594 237.71875 109.050781 237.703125 L 109.050781 237.699219 L 107.40625 238.5625 C 106.339844 239.140625 104.902344 238.585938 104.335938 237.273438 C 103.769531 235.945312 103.269531 234.59375 102.882812 233.207031 C 102.679688 232.527344 102.777344 231.839844 103.066406 231.308594 C 103.355469 230.773438 103.832031 230.398438 104.433594 230.277344 L 106.257812 229.910156 C 106.179688 229.519531 106.105469 229.132812 106.042969 228.738281 C 106.015625 228.566406 105.988281 228.398438 105.964844 228.226562 C 105.957031 228.183594 105.949219 228.140625 105.945312 228.09375 C 105.921875 227.921875 105.902344 227.75 105.878906 227.578125 C 105.859375 227.445312 105.84375 227.308594 105.828125 227.171875 C 105.828125 227.113281 105.820312 227.054688 105.8125 227 C 105.78125 226.6875 105.753906 226.371094 105.734375 226.054688 C 105.707031 225.644531 105.683594 225.238281 105.675781 224.824219 C 105.664062 224.554688 105.660156 224.28125 105.660156 224.007812 L 103.800781 224.007812 C 103.191406 224.007812 102.648438 223.734375 102.257812 223.269531 C 101.867188 222.808594 101.628906 222.15625 101.699219 221.453125 C 101.699219 221.417969 101.699219 221.382812 101.703125 221.351562 L 96.199219 221.351562 C 94.101562 221.351562 92.398438 219.652344 92.398438 217.566406 L 92.398438 177.941406 C 92.398438 177.246094 92.589844 176.5625 92.953125 175.96875 " fill-opacity="1" fill-rule="nonzero"/></g><g clip-path="url(#9f8414a01c)"><path fill="#24960c" d="M 112.496094 171.375 L 137.585938 171.375 C 139.417969 171.375 140.90625 169.894531 140.90625 168.070312 L 140.90625 146.125 C 140.90625 144.300781 139.417969 142.824219 137.585938 142.824219 L 122.027344 142.824219 C 120.796875 142.824219 119.667969 143.496094 119.09375 144.578125 L 109.683594 162.492188 C 109.445312 162.941406 109.3125 163.4375 109.296875 163.945312 L 109.179688 167.972656 C 109.125 169.832031 110.625 171.375 112.496094 171.375 Z M 145.808594 166.03125 C 145.808594 168.539062 148.402344 170.207031 150.695312 169.179688 L 162.167969 164.039062 C 163.714844 163.34375 164.53125 161.632812 164.09375 160 L 163.464844 147.652344 C 163.328125 144.945312 161.082031 142.824219 158.359375 142.824219 L 149.273438 142.824219 C 147.359375 142.824219 145.808594 144.367188 145.808594 146.273438 Z M 185.292969 199.074219 C 185.3125 199.074219 185.328125 199.074219 185.34375 199.074219 C 186.714844 199.097656 187.847656 198.015625 187.871094 196.648438 L 188.589844 158.320312 C 188.613281 156.953125 187.523438 155.820312 186.152344 155.804688 C 184.78125 155.777344 183.648438 156.863281 183.625 158.226562 L 182.910156 196.558594 C 182.882812 197.90625 183.949219 199.019531 185.292969 199.074219 Z M 258.144531 150.730469 C 259.515625 150.730469 260.628906 149.625 260.628906 148.261719 C 260.628906 146.894531 259.515625 145.789062 258.144531 145.789062 L 189.214844 145.789062 C 187.84375 145.789062 186.734375 146.894531 186.734375 148.261719 C 186.734375 149.625 187.84375 150.730469 189.214844 150.730469 Z M 196.179688 181.414062 L 253.675781 181.414062 C 255.046875 181.414062 256.15625 180.308594 256.15625 178.945312 C 256.15625 177.578125 255.046875 176.472656 253.675781 176.472656 L 196.179688 176.472656 C 194.808594 176.472656 193.699219 177.578125 193.699219 178.945312 C 193.699219 180.308594 194.808594 181.414062 196.179688 181.414062 Z M 269.796875 163.472656 C 269.796875 162.109375 268.683594 161.003906 267.3125 161.003906 L 198.378906 161.003906 C 197.011719 161.003906 195.898438 162.109375 195.898438 163.472656 C 195.898438 164.835938 197.011719 165.941406 198.378906 165.941406 L 267.3125 165.941406 C 268.683594 165.941406 269.796875 164.835938 269.796875 163.472656 Z M 92.953125 175.96875 L 114.097656 139.472656 C 115.921875 136.328125 119.273438 134.378906 122.917969 134.335938 L 161.246094 133.933594 C 166.074219 133.886719 170.214844 137.332031 171.027344 142.066406 L 174.09375 159.96875 L 174.09375 202.863281 L 177.734375 202.863281 L 177.734375 159.8125 C 177.734375 159.710938 177.726562 159.609375 177.707031 159.511719 L 172.832031 128.414062 C 172.644531 127.199219 171.617188 126.296875 170.382812 126.253906 L 121.40625 124.648438 C 120.636719 124.621094 119.921875 124.253906 119.457031 123.648438 L 117.699219 121.367188 C 116.917969 120.351562 116.972656 118.882812 117.917969 118.011719 C 118.363281 117.601562 118.960938 117.34375 119.640625 117.34375 L 173.496094 117.34375 C 175.1875 117.34375 176.789062 118.109375 177.847656 119.421875 L 192.242188 137.277344 C 192.847656 138.023438 193.757812 138.464844 194.722656 138.46875 L 264.765625 138.871094 C 266.738281 138.882812 268.574219 139.898438 269.621094 141.566406 L 281.390625 160.292969 C 281.460938 160.402344 281.53125 160.523438 281.578125 160.644531 C 282.164062 162.0625 281.871094 163.695312 280.816406 164.828125 L 245.058594 203.148438 C 245.855469 203.652344 246.214844 204.722656 245.699219 205.644531 L 245.28125 206.390625 C 248.972656 211.304688 251.15625 217.402344 251.15625 224.007812 C 251.15625 240.28125 237.902344 253.46875 221.558594 253.46875 C 205.214844 253.46875 191.960938 240.28125 191.960938 224.007812 C 191.960938 223.113281 192.007812 222.226562 192.085938 221.351562 L 164.734375 221.351562 C 164.8125 222.226562 164.855469 223.113281 164.855469 224.007812 C 164.855469 240.28125 151.605469 253.46875 135.257812 253.46875 C 118.914062 253.46875 105.664062 240.28125 105.664062 224.007812 C 105.664062 223.113281 105.707031 222.226562 105.785156 221.351562 L 96.199219 221.351562 C 94.101562 221.351562 92.398438 219.652344 92.398438 217.566406 L 92.398438 177.941406 C 92.398438 177.246094 92.589844 176.5625 92.953125 175.96875 " fill-opacity="1" fill-rule="nonzero"/></g><path fill="#8f929b" d="M 155.949219 221.351562 L 196.292969 221.351562 C 196.976562 221.351562 197.605469 220.980469 197.9375 220.386719 L 206.164062 205.644531 C 206.863281 204.394531 205.957031 202.863281 204.523438 202.863281 L 155.949219 202.863281 C 154.914062 202.863281 154.070312 203.699219 154.070312 204.734375 L 154.070312 219.476562 C 154.070312 220.511719 154.914062 221.351562 155.949219 221.351562 " fill-opacity="1" fill-rule="nonzero"/><g clip-path="url(#035f417bdc)"><path fill="#3e4046" d="M 139.382812 181.371094 L 132.398438 181.371094 C 131.574219 181.371094 130.902344 180.703125 130.902344 179.886719 L 130.902344 178 C 130.902344 177.183594 131.574219 176.515625 132.398438 176.515625 L 139.382812 176.515625 C 140.207031 176.515625 140.875 177.183594 140.875 178 L 140.875 179.886719 C 140.875 180.703125 140.207031 181.371094 139.382812 181.371094 Z M 203.828125 224.007812 C 203.828125 223.105469 203.898438 222.214844 204.027344 221.351562 C 205.316406 212.863281 212.675781 206.355469 221.558594 206.355469 C 227.285156 206.355469 232.382812 209.0625 235.617188 213.257812 C 236.859375 214.855469 237.820312 216.667969 238.449219 218.632812 L 238.449219 218.636719 C 238.996094 220.328125 239.289062 222.132812 239.289062 224.007812 C 239.289062 233.753906 231.351562 241.660156 221.558594 241.660156 C 211.765625 241.660156 203.828125 233.753906 203.828125 224.007812 Z M 187.996094 221.453125 C 187.929688 222.15625 188.164062 222.808594 188.558594 223.273438 C 188.945312 223.734375 189.492188 224.007812 190.101562 224.007812 L 191.964844 224.007812 C 191.964844 226.027344 192.167969 228.003906 192.558594 229.910156 L 190.734375 230.277344 C 190.132812 230.398438 189.65625 230.773438 189.367188 231.308594 C 189.074219 231.839844 188.980469 232.53125 189.183594 233.207031 C 189.570312 234.59375 190.074219 235.945312 190.636719 237.273438 C 191.207031 238.585938 192.640625 239.136719 193.703125 238.5625 L 195.347656 237.699219 C 196.28125 239.460938 197.382812 241.117188 198.636719 242.644531 L 197.195312 243.816406 C 196.722656 244.203125 196.46875 244.761719 196.46875 245.363281 C 196.460938 245.96875 196.695312 246.621094 197.191406 247.125 C 198.179688 248.175781 199.257812 249.140625 200.375 250.050781 C 201.484375 250.953125 203.015625 250.777344 203.691406 249.773438 L 204.746094 248.253906 C 206.375 249.375 208.117188 250.335938 209.960938 251.121094 L 209.230469 252.824219 C 208.992188 253.382812 209.027344 253.992188 209.308594 254.527344 C 209.582031 255.070312 210.097656 255.542969 210.773438 255.757812 C 212.140625 256.230469 213.546875 256.582031 214.960938 256.875 C 215.660156 256.996094 216.335938 256.882812 216.847656 256.539062 C 217.359375 256.203125 217.699219 255.691406 217.769531 255.085938 L 217.992188 253.253906 C 219.160156 253.394531 220.351562 253.46875 221.558594 253.46875 C 222.363281 253.46875 223.15625 253.433594 223.945312 253.375 L 224.09375 255.214844 C 224.140625 255.816406 224.460938 256.34375 224.957031 256.703125 C 225.453125 257.042969 226.125 257.214844 226.828125 257.113281 C 227.535156 256.980469 228.253906 256.878906 228.957031 256.703125 L 230.011719 256.457031 L 231.054688 256.164062 C 232.433594 255.757812 233.164062 254.421875 232.714844 253.289062 L 232.054688 251.558594 C 233.929688 250.851562 235.714844 249.960938 237.382812 248.90625 L 238.375 250.46875 C 238.699219 250.976562 239.226562 251.296875 239.835938 251.378906 C 240.441406 251.464844 241.105469 251.285156 241.683594 250.878906 C 242.828125 250 243.953125 249.09375 244.976562 248.078125 C 246.003906 247.085938 246.027344 245.5625 245.101562 244.769531 L 243.710938 243.542969 C 245.027344 242.066406 246.195312 240.453125 247.195312 238.734375 L 248.800781 239.660156 C 249.328125 239.964844 249.945312 240 250.523438 239.796875 C 251.09375 239.589844 251.605469 239.128906 251.925781 238.496094 C 252.53125 237.191406 253.105469 235.863281 253.539062 234.492188 C 253.984375 233.132812 253.292969 231.773438 252.101562 231.5 L 250.300781 231.058594 C 250.765625 229.167969 251.050781 227.203125 251.128906 225.1875 L 252.984375 225.261719 C 254.1875 225.328125 255.257812 224.214844 255.199219 222.792969 C 255.191406 222.074219 255.105469 221.355469 255.058594 220.640625 C 254.964844 219.925781 254.898438 219.210938 254.769531 218.5 C 254.539062 217.09375 253.269531 216.210938 252.101562 216.515625 L 250.300781 216.957031 C 249.820312 215.011719 249.148438 213.144531 248.300781 211.371094 L 249.980469 210.574219 C 250.53125 210.3125 250.914062 209.832031 251.058594 209.246094 C 251.210938 208.660156 251.140625 207.96875 250.777344 207.363281 C 250.070312 206.105469 249.253906 204.917969 248.390625 203.761719 C 247.519531 202.628906 245.996094 202.433594 245.101562 203.246094 L 243.710938 204.472656 C 242.390625 202.992188 240.925781 201.644531 239.332031 200.449219 L 240.453125 198.972656 C 240.820312 198.484375 240.929688 197.886719 240.789062 197.296875 C 240.65625 196.707031 240.269531 196.128906 239.664062 195.753906 C 238.453125 194.972656 237.175781 194.289062 235.871094 193.667969 C 234.574219 193.058594 233.128906 193.597656 232.714844 194.726562 L 232.054688 196.457031 C 230.21875 195.761719 228.292969 195.246094 226.300781 194.925781 L 226.597656 193.097656 C 226.695312 192.5 226.511719 191.90625 226.113281 191.457031 C 225.710938 191.007812 225.101562 190.660156 224.394531 190.617188 L 223.316406 190.535156 L 222.234375 190.507812 C 221.511719 190.476562 220.789062 190.515625 220.070312 190.53125 C 219.359375 190.558594 218.738281 190.871094 218.320312 191.296875 C 217.902344 191.738281 217.695312 192.328125 217.769531 192.925781 L 217.992188 194.761719 C 215.984375 195 214.042969 195.4375 212.179688 196.058594 L 211.59375 194.308594 C 211.402344 193.734375 210.964844 193.300781 210.394531 193.070312 C 209.828125 192.84375 209.140625 192.859375 208.476562 193.117188 C 207.15625 193.699219 205.84375 194.3125 204.605469 195.054688 C 203.367188 195.773438 202.980469 197.25 203.691406 198.238281 L 204.746094 199.761719 C 203.105469 200.890625 201.585938 202.175781 200.210938 203.605469 L 198.871094 202.324219 C 198.4375 201.90625 197.847656 201.722656 197.234375 201.78125 C 196.628906 201.84375 196.023438 202.175781 195.5625 202.710938 C 194.660156 203.832031 193.789062 204.980469 193.03125 206.210938 C 192.273438 207.417969 192.617188 208.902344 193.703125 209.453125 L 195.347656 210.3125 C 194.433594 212.050781 193.683594 213.894531 193.125 215.816406 L 191.339844 215.300781 C 190.757812 215.132812 190.152344 215.246094 189.640625 215.582031 C 189.128906 215.917969 188.753906 216.492188 188.59375 217.179688 C 188.316406 218.59375 188.089844 220.015625 187.996094 221.453125 Z M 221.558594 214.964844 C 225.027344 214.964844 228.039062 216.894531 229.574219 219.738281 C 229.847656 220.25 230.074219 220.789062 230.25 221.351562 C 230.507812 222.1875 230.644531 223.082031 230.644531 224.007812 C 230.644531 229.003906 226.578125 233.054688 221.558594 233.054688 C 216.539062 233.054688 212.472656 229.003906 212.472656 224.007812 C 212.472656 223.082031 212.609375 222.1875 212.867188 221.351562 C 214.011719 217.652344 217.46875 214.964844 221.558594 214.964844 Z M 117.527344 224.007812 C 117.527344 223.105469 117.597656 222.214844 117.730469 221.351562 C 118.878906 213.765625 124.882812 207.761719 132.488281 206.574219 C 133.390625 206.429688 134.316406 206.355469 135.261719 206.355469 C 144.144531 206.355469 151.5 212.863281 152.789062 221.351562 C 152.921875 222.214844 152.992188 223.105469 152.992188 224.007812 C 152.992188 233.753906 145.050781 241.660156 135.261719 241.660156 C 125.46875 241.660156 117.527344 233.753906 117.527344 224.007812 Z M 102.257812 223.273438 C 102.648438 223.734375 103.191406 224.007812 103.800781 224.007812 L 105.664062 224.007812 C 105.664062 226.027344 105.867188 228.003906 106.257812 229.910156 L 104.433594 230.277344 C 103.832031 230.398438 103.355469 230.773438 103.066406 231.308594 C 102.777344 231.839844 102.679688 232.53125 102.882812 233.207031 C 103.269531 234.59375 103.773438 235.945312 104.335938 237.273438 C 104.90625 238.585938 106.339844 239.136719 107.40625 238.5625 L 109.046875 237.699219 C 109.980469 239.460938 111.082031 241.117188 112.339844 242.644531 L 110.898438 243.816406 C 110.421875 244.203125 110.171875 244.761719 110.167969 245.363281 C 110.160156 245.96875 110.394531 246.621094 110.890625 247.125 C 111.878906 248.175781 112.957031 249.140625 114.074219 250.050781 C 115.183594 250.953125 116.71875 250.777344 117.390625 249.773438 L 118.445312 248.253906 C 120.074219 249.375 121.820312 250.335938 123.660156 251.121094 L 122.933594 252.824219 C 122.6875 253.382812 122.730469 253.992188 123.007812 254.527344 C 123.28125 255.070312 123.796875 255.542969 124.472656 255.757812 C 125.839844 256.230469 127.246094 256.582031 128.664062 256.875 C 129.363281 256.996094 130.035156 256.882812 130.546875 256.539062 C 131.058594 256.203125 131.398438 255.691406 131.46875 255.085938 L 131.691406 253.253906 C 132.859375 253.394531 134.050781 253.46875 135.257812 253.46875 C 136.0625 253.46875 136.859375 253.433594 137.644531 253.375 L 137.796875 255.214844 C 137.839844 255.816406 138.160156 256.34375 138.660156 256.703125 C 139.152344 257.042969 139.824219 257.214844 140.527344 257.113281 C 141.238281 256.980469 141.953125 256.878906 142.65625 256.703125 L 143.710938 256.457031 L 144.757812 256.164062 C 146.132812 255.757812 146.867188 254.421875 146.414062 253.289062 L 145.753906 251.558594 C 147.628906 250.851562 149.410156 249.960938 151.082031 248.90625 L 152.074219 250.46875 C 152.402344 250.976562 152.929688 251.296875 153.535156 251.378906 C 154.140625 251.464844 154.804688 251.285156 155.382812 250.878906 C 156.523438 250 157.652344 249.09375 158.675781 248.078125 C 159.703125 247.085938 159.726562 245.5625 158.800781 244.769531 L 157.410156 243.542969 C 158.726562 242.066406 159.898438 240.453125 160.898438 238.734375 L 162.5 239.660156 C 163.027344 239.964844 163.644531 240 164.222656 239.796875 C 164.792969 239.589844 165.304688 239.128906 165.625 238.496094 C 166.230469 237.191406 166.804688 235.863281 167.238281 234.492188 C 167.683594 233.132812 166.992188 231.773438 165.804688 231.5 L 164 231.058594 C 164.464844 229.167969 164.75 227.203125 164.828125 225.1875 L 166.683594 225.261719 C 167.886719 225.328125 168.960938 224.214844 168.898438 222.792969 C 168.890625 222.074219 168.804688 221.355469 168.757812 220.640625 C 168.667969 219.925781 168.597656 219.210938 168.46875 218.5 C 168.238281 217.09375 166.96875 216.210938 165.804688 216.515625 L 164 216.957031 C 163.519531 215.011719 162.847656 213.144531 162 211.371094 L 163.679688 210.574219 C 164.230469 210.3125 164.613281 209.832031 164.761719 209.246094 C 164.910156 208.660156 164.839844 207.96875 164.476562 207.363281 C 163.769531 206.105469 162.953125 204.917969 162.089844 203.761719 C 161.222656 202.628906 159.695312 202.433594 158.800781 203.246094 L 157.410156 204.472656 C 156.089844 202.992188 154.625 201.644531 153.035156 200.449219 L 154.152344 198.972656 C 154.523438 198.484375 154.632812 197.886719 154.488281 197.296875 C 154.355469 196.707031 153.96875 196.128906 153.363281 195.753906 C 152.152344 194.972656 150.875 194.289062 149.570312 193.667969 C 148.273438 193.058594 146.828125 193.597656 146.414062 194.726562 L 145.753906 196.457031 C 143.917969 195.761719 141.992188 195.246094 140.003906 194.925781 L 140.296875 193.097656 C 140.394531 192.5 140.210938 191.90625 139.8125 191.457031 C 139.414062 191.007812 138.800781 190.660156 138.09375 190.617188 L 137.015625 190.535156 L 135.933594 190.507812 C 135.210938 190.476562 134.488281 190.515625 133.769531 190.53125 C 133.0625 190.558594 132.433594 190.871094 132.019531 191.296875 C 131.601562 191.738281 131.394531 192.328125 131.46875 192.925781 L 131.691406 194.761719 C 129.6875 195 127.742188 195.4375 125.878906 196.058594 L 125.292969 194.308594 C 125.101562 193.734375 124.664062 193.300781 124.09375 193.070312 C 123.527344 192.84375 122.839844 192.859375 122.179688 193.117188 C 120.855469 193.699219 119.542969 194.3125 118.304688 195.054688 C 117.066406 195.773438 116.679688 197.25 117.390625 198.238281 L 118.445312 199.761719 C 116.808594 200.890625 115.285156 202.175781 113.910156 203.605469 L 112.574219 202.324219 C 112.136719 201.90625 111.546875 201.722656 110.9375 201.78125 C 110.332031 201.84375 109.726562 202.175781 109.261719 202.710938 C 108.363281 203.832031 107.488281 204.980469 106.734375 206.210938 C 105.972656 207.417969 106.316406 208.902344 107.40625 209.453125 L 109.046875 210.3125 C 108.132812 212.054688 107.382812 213.894531 106.824219 215.816406 L 105.042969 215.300781 C 104.457031 215.132812 103.851562 215.246094 103.339844 215.582031 C 102.828125 215.917969 102.453125 216.492188 102.292969 217.179688 C 102.015625 218.59375 101.789062 220.015625 101.695312 221.453125 C 101.628906 222.15625 101.863281 222.808594 102.257812 223.273438 Z M 126.570312 221.351562 C 126.3125 222.1875 126.171875 223.082031 126.171875 224.007812 C 126.171875 229.003906 130.238281 233.054688 135.261719 233.054688 C 140.277344 233.054688 144.347656 229.003906 144.347656 224.007812 C 144.347656 223.082031 144.207031 222.1875 143.945312 221.351562 C 142.808594 217.652344 139.347656 214.964844 135.261719 214.964844 C 134.292969 214.964844 133.359375 215.113281 132.488281 215.390625 C 129.664062 216.289062 127.441406 218.527344 126.570312 221.351562 " fill-opacity="1" fill-rule="nonzero"/></g><g clip-path="url(#690f4e913e)"><path fill="#eb610c" d="M 243.757812 165.113281 C 243.757812 165.839844 243.722656 166.5625 243.648438 167.28125 C 243.578125 168.003906 243.472656 168.71875 243.332031 169.429688 C 243.191406 170.140625 243.015625 170.84375 242.804688 171.535156 C 242.59375 172.230469 242.351562 172.910156 242.074219 173.582031 C 241.796875 174.25 241.484375 174.902344 241.144531 175.542969 C 240.800781 176.183594 240.429688 176.804688 240.027344 177.40625 C 239.625 178.007812 239.195312 178.589844 238.734375 179.148438 C 238.273438 179.710938 237.789062 180.246094 237.277344 180.757812 C 236.765625 181.269531 236.226562 181.757812 235.667969 182.214844 C 235.109375 182.675781 234.527344 183.105469 233.921875 183.511719 C 233.320312 183.914062 232.699219 184.285156 232.0625 184.625 C 231.421875 184.96875 230.769531 185.277344 230.097656 185.554688 C 229.429688 185.832031 228.746094 186.074219 228.054688 186.285156 C 227.359375 186.496094 226.660156 186.671875 225.949219 186.8125 C 225.238281 186.953125 224.523438 187.0625 223.800781 187.132812 C 223.078125 187.203125 222.355469 187.238281 221.632812 187.238281 C 220.90625 187.238281 220.183594 187.203125 219.464844 187.132812 C 218.742188 187.0625 218.027344 186.953125 217.316406 186.8125 C 216.605469 186.671875 215.902344 186.496094 215.210938 186.285156 C 214.515625 186.074219 213.835938 185.832031 213.164062 185.554688 C 212.496094 185.277344 211.839844 184.96875 211.203125 184.625 C 210.5625 184.285156 209.941406 183.914062 209.339844 183.511719 C 208.738281 183.105469 208.15625 182.675781 207.597656 182.214844 C 207.035156 181.757812 206.5 181.269531 205.988281 180.757812 C 205.476562 180.246094 204.988281 179.710938 204.527344 179.148438 C 204.070312 178.589844 203.636719 178.007812 203.234375 177.40625 C 202.832031 176.804688 202.460938 176.183594 202.121094 175.542969 C 201.777344 174.902344 201.46875 174.25 201.191406 173.582031 C 200.914062 172.910156 200.667969 172.230469 200.460938 171.535156 C 200.25 170.84375 200.074219 170.140625 199.933594 169.429688 C 199.789062 168.71875 199.683594 168.003906 199.613281 167.28125 C 199.542969 166.5625 199.507812 165.839844 199.507812 165.113281 C 199.507812 164.390625 199.542969 163.667969 199.613281 162.945312 C 199.683594 162.222656 199.789062 161.507812 199.933594 160.796875 C 200.074219 160.085938 200.25 159.382812 200.460938 158.691406 C 200.667969 157.996094 200.914062 157.316406 201.191406 156.648438 C 201.46875 155.976562 201.777344 155.324219 202.121094 154.683594 C 202.460938 154.046875 202.832031 153.425781 203.234375 152.820312 C 203.636719 152.21875 204.070312 151.636719 204.527344 151.078125 C 204.988281 150.519531 205.476562 149.980469 205.988281 149.46875 C 206.5 148.957031 207.035156 148.46875 207.597656 148.011719 C 208.15625 147.550781 208.738281 147.121094 209.339844 146.71875 C 209.941406 146.316406 210.5625 145.941406 211.203125 145.601562 C 211.839844 145.257812 212.496094 144.949219 213.164062 144.671875 C 213.835938 144.394531 214.515625 144.152344 215.210938 143.941406 C 215.902344 143.730469 216.605469 143.554688 217.316406 143.414062 C 218.027344 143.273438 218.742188 143.167969 219.464844 143.09375 C 220.183594 143.023438 220.90625 142.988281 221.632812 142.988281 C 222.355469 142.988281 223.078125 143.023438 223.800781 143.09375 C 224.523438 143.167969 225.238281 143.273438 225.949219 143.414062 C 226.660156 143.554688 227.359375 143.730469 228.054688 143.941406 C 228.746094 144.152344 229.429688 144.394531 230.097656 144.671875 C 230.769531 144.949219 231.421875 145.257812 232.0625 145.601562 C 232.699219 145.941406 233.320312 146.316406 233.921875 146.71875 C 234.527344 147.121094 235.109375 147.550781 235.667969 148.011719 C 236.226562 148.46875 236.765625 148.957031 237.277344 149.46875 C 237.789062 149.980469 238.273438 150.519531 238.734375 151.078125 C 239.195312 151.636719 239.625 152.21875 240.027344 152.820312 C 240.429688 153.425781 240.800781 154.046875 241.144531 154.683594 C 241.484375 155.324219 241.796875 155.976562 242.074219 156.648438 C 242.351562 157.316406 242.59375 157.996094 242.804688 158.691406 C 243.015625 159.382812 243.191406 160.085938 243.332031 160.796875 C 243.472656 161.507812 243.578125 162.222656 243.648438 162.945312 C 243.722656 163.667969 243.757812 164.390625 243.757812 165.113281 Z M 243.757812 165.113281 " fill-opacity="1" fill-rule="nonzero"/></g><path fill="#ffffff" d="M 211.796875 161.671875 C 213.691406 161.671875 215.242188 163.21875 215.242188 165.113281 L 215.242188 173.964844 C 215.242188 175.855469 213.691406 177.40625 211.796875 177.40625 C 209.90625 177.40625 208.355469 175.855469 208.355469 173.964844 L 208.355469 165.113281 C 208.355469 163.21875 209.90625 161.671875 211.796875 161.671875 Z M 217.207031 162.65625 C 218.191406 161.34375 219.171875 160.035156 219.664062 158.558594 C 220.15625 157.082031 220.15625 155.445312 219.992188 154.296875 C 219.828125 153.148438 219.5 152.492188 219.828125 152.167969 C 220.15625 151.839844 221.140625 151.839844 222.121094 152.003906 C 223.105469 152.167969 224.089844 152.496094 224.582031 153.480469 C 225.074219 154.460938 225.074219 156.101562 224.910156 157.246094 C 224.746094 158.394531 224.417969 159.050781 224.253906 159.707031 C 224.089844 160.359375 224.089844 161.015625 225.402344 161.015625 C 226.714844 161.015625 229.335938 160.359375 230.808594 160.359375 C 232.285156 160.359375 232.613281 161.015625 232.777344 161.835938 C 232.941406 162.65625 232.257812 163.238281 232.421875 163.890625 C 232.632812 164.730469 233.757812 164.816406 233.9375 166.464844 C 233.992188 166.976562 233.246094 167.878906 233.246094 168.207031 C 233.246094 168.535156 233.265625 170.386719 232.9375 170.878906 C 232.609375 171.367188 231.957031 171.179688 231.628906 171.832031 C 231.300781 172.488281 231.628906 173.46875 231.300781 174.128906 C 230.972656 174.78125 229.988281 175.109375 228.023438 175.273438 C 226.058594 175.4375 223.105469 175.4375 221.140625 175.4375 C 219.171875 175.4375 218.191406 175.4375 217.699219 174.621094 C 217.207031 173.800781 217.207031 172.160156 217.207031 170.03125 C 217.207031 167.898438 217.207031 165.277344 217.207031 162.65625 Z M 217.207031 162.65625 " fill-opacity="1" fill-rule="evenodd"/><g clip-path="url(#6f67236293)"><g clip-path="url(#d94dd42919)"><path fill="url(#fd0399ae63)" d="M 67.046875 64.390625 L 67.046875 293.445312 L 296.101562 293.445312 L 296.101562 64.390625 Z M 67.046875 64.390625 " fill-rule="nonzero"/></g></g></svg>